<?xml version="1.0" standalone="no"?>
<!DOCTYPE svg PUBLIC "-//W3C//DTD SVG 1.1//EN" "http://www.w3.org/Graphics/SVG/1.1/DTD/svg11.dtd" >
<svg>
<metadata>
Created by FontForge 20090914 at Fri Feb 24 12:14:56 2012
 By root
Copyright (c) 2006 Jack Usine / SMeltery. All rights reserved.
</metadata>
<defs>
<font id="AUdimat-Regular" horiz-adv-x="473" >
  <font-face 
    font-family="AUdimat"
    font-weight="400"
    font-stretch="normal"
    units-per-em="1000"
    panose-1="2 0 5 6 0 0 0 2 0 4"
    ascent="759"
    descent="-241"
    x-height="517"
    cap-height="682"
    bbox="-23 -219 1284 906"
    underline-thickness="50"
    underline-position="-50"
    unicode-range="U+000D-U+FB02"
  />
<missing-glyph horiz-adv-x="300" 
 />
    <glyph glyph-name=".notdef" horiz-adv-x="300" 
 />
    <glyph glyph-name="five" unicode="5" horiz-adv-x="463" 
d="M271 407c150 0 150 -148 150 -148v-110c0 -149 -150 -149 -150 -149h-54c-149 0 -151 134 -149 134h79c0 -56 70 -56 70 -56h54c71 0 71 71 71 71v110s0 70 -71 70h-204v353h320v-78h-241v-197h125z" />
    <glyph glyph-name="six" unicode="6" horiz-adv-x="462" 
d="M271 407c109 0 149 -88 149 -148v-110c0 -109 -89 -149 -149 -149h-55c-110 0 -149 89 -149 149v384c0 59 39 149 149 149h182v-78h-182c-57 0 -70 -39 -70 -71v-126h125zM341 149v110c-1 31 -13 70 -70 70h-125v-180c0 -32 13 -71 70 -71h55c32 1 70 14 70 71z" />
    <glyph glyph-name="seven" unicode="7" horiz-adv-x="386" 
d="M369 599l-171 -599h-78l175 604h-278v78h352v-83z" />
    <glyph glyph-name="eight" unicode="8" horiz-adv-x="488" 
d="M421 479c0 -58 -28 -98 -63 -126c63 -55 63 -127 63 -127v-77c0 -149 -150 -149 -150 -149h-54c-150 0 -150 149 -150 149v77c0 57 29 97 62 124c-62 56 -62 129 -62 129v54c0 149 150 149 150 149h54c150 0 150 -149 150 -149v-54zM342 149v99c0 71 -71 71 -71 71h-54
c-71 0 -71 -71 -71 -71v-99c0 -71 71 -71 71 -71h54c71 0 71 71 71 71zM146 533v-76c0 -71 71 -71 71 -71h54c71 0 71 71 71 71v76c0 71 -71 71 -71 71h-54c-71 0 -71 -71 -71 -71z" />
    <glyph glyph-name="nine" unicode="9" horiz-adv-x="463" 
d="M192 275c-110 0 -150 89 -150 148v110c0 110 89 149 150 149h54c110 0 150 -90 150 -149v-384c0 -60 -40 -149 -150 -149h-182v78h182c57 0 70 39 71 71v126h-125zM121 533v-109c1 -33 13 -71 71 -71h125v180c-1 32 -14 71 -71 71h-54c-33 -1 -71 -15 -71 -71z" />
    <glyph glyph-name="equal" unicode="=" horiz-adv-x="492" 
d="M42 407h408v-78h-408v78zM42 110v78h408v-78h-408z" />
    <glyph glyph-name="plus" unicode="+" horiz-adv-x="492" 
d="M450 298v-79h-165v-164h-79v164h-164v79h164v165h79v-165h165z" />
    <glyph glyph-name="divide" unicode="&#xf7;" horiz-adv-x="492" 
d="M42 298h408v-79h-408v79zM207 55v79h79v-79h-79zM286 463v-79h-79v79h79z" />
    <glyph glyph-name="multiply" unicode="&#xd7;" horiz-adv-x="426" 
d="M384 142l-55 -54l-116 116l-117 -117l-54 55l117 117l-117 116l54 55l117 -117l117 117l54 -55l-117 -116z" />
    <glyph glyph-name="underscore" unicode="_" horiz-adv-x="586" 
d="M7 51h572v-51h-572v51z" />
    <glyph glyph-name="numbersign" unicode="#" horiz-adv-x="631" 
d="M509 682l-21 -165h86v-78h-96l-26 -196h67v-78h-78c-6 -49 -14 -114 -22 -165h-78l21 165h-140c-6 -49 -15 -114 -22 -165h-78l21 165h-86v78h96l26 196h-68v78h79c6 49 14 114 22 165h78l-21 -165h140c6 49 15 114 22 165h78zM372 243l27 196h-140l-27 -196h140z" />
    <glyph glyph-name="minus" unicode="&#x2212;" horiz-adv-x="381" 
d="M42 298h297v-79h-297v79z" />
    <glyph glyph-name="a" unicode="a" 
d="M251 517c0 0 150 0 150 -148v-369h-33l-77 78c0 -78 -40 -78 -40 -78h-54s-150 0 -150 149s150 149 150 149h125v71c0 70 -71 70 -71 70h-170v78h170zM322 149v70h-125s-71 0 -71 -70c0 -71 71 -71 71 -71h54s71 0 71 71z" />
    <glyph glyph-name="ring" unicode="&#x2da;" horiz-adv-x="269" 
d="M42 665c0 51 42 93 92 93c51 0 93 -42 93 -93c0 -50 -42 -92 -93 -92c-50 0 -92 42 -92 92zM85 665c0 -28 21 -49 49 -49s49 21 49 49s-21 49 -49 49s-49 -21 -49 -49z" />
    <glyph glyph-name="b" unicode="b" horiz-adv-x="497" 
d="M281 517c0 0 149 0 149 -148v-220c0 -149 -149 -149 -149 -149h-55c-39 0 -39 78 -39 78l-78 -78h-32v737h79v-220h125zM351 149v220c0 70 -70 70 -70 70h-125v-290c0 -71 70 -71 70 -71h55c70 0 70 71 70 71z" />
    <glyph glyph-name="c" unicode="c" horiz-adv-x="464" 
d="M67 369v-220c0 -149 150 -149 150 -149h54c149 0 149 134 149 134h-79c0 -56 -70 -56 -70 -56h-54c-71 0 -71 71 -71 71v220c0 70 71 70 71 70h54c68 0 69 -55 69 -55h81c1 133 -150 133 -150 133h-54c-150 0 -150 -148 -150 -148z" />
    <glyph glyph-name="d" unicode="d" horiz-adv-x="497" 
d="M67 369c0 148 149 148 149 148h125v220h79v-737h-32l-78 78s0 -78 -39 -78h-55s-149 0 -149 149v220zM146 369v-220s0 -71 70 -71h55s70 0 70 71v290h-125s-70 0 -70 -70z" />
    <glyph glyph-name="e" unicode="e" horiz-adv-x="468" 
d="M421 369c0 0 0 -150 -150 -150h-125v-70s0 -71 71 -71h204v-78h-204s-150 0 -150 149v220s0 148 150 148h54s150 0 150 -148zM146 298h125s71 0 71 71c0 70 -71 70 -71 70h-54s-71 0 -71 -70v-71z" />
    <glyph glyph-name="f" unicode="f" horiz-adv-x="292" 
d="M201 658c-70 0 -70 -70 -70 -70s1 -71 50 -71h94v-78h-109v-439h-79v439h-55v78h77c-31 29 -56 62 -56 93c0 127 148 127 148 127h74v-79h-74z" />
    <glyph glyph-name="h" unicode="h" horiz-adv-x="502" 
d="M281 517c0 0 149 0 149 -148v-369h-79v369c0 70 -70 70 -70 70h-125v-439h-79v739h79v-222h125z" />
    <glyph glyph-name="i" unicode="i" horiz-adv-x="252" 
d="M166 78h54v-78h-188v78h55v439h79v-439zM166 737v-79h-79v79h79z" />
    <glyph glyph-name="j" unicode="j" horiz-adv-x="235" 
d="M80 515h78v-586c0 -118 -94 -142 -133 -147v78c55 0 55 69 55 69v586zM80 737h78v-79h-78v79z" />
    <glyph glyph-name="k" unicode="k" horiz-adv-x="449" 
d="M452 0h-91l-145 255l-61 -91v-164h-78v737h78v-471l189 251h99l-163 -216z" />
    <glyph glyph-name="l" unicode="l" horiz-adv-x="252" 
d="M166 78h54v-78h-188v78h55v659h79v-659z" />
    <glyph glyph-name="m" unicode="m" horiz-adv-x="666" 
d="M446 517c148 0 148 -148 148 -148v-369h-78v369s0 70 -70 70c-71 0 -71 -70 -71 -70v-369h-79v369c0 70 -70 70 -70 70c-71 0 -71 -70 -71 -70v-369h-78v517h32l78 -77c0 77 39 77 39 77c73 0 100 -49 109 -69c0 0 45 69 111 69z" />
    <glyph glyph-name="n" unicode="n" horiz-adv-x="503" 
d="M431 0v371c0 148 -150 146 -150 146h-54s-40 0 -40 -78l-77 78h-33v-517h79v368s0 71 71 71h54s71 0 71 -71v-368h79z" />
    <glyph glyph-name="o" unicode="o" horiz-adv-x="487" 
d="M271 517c0 0 149 0 149 -148v-220s0 -149 -149 -149h-55s-149 0 -149 149v220s0 148 149 148h55zM341 149v220s0 70 -70 70h-55s-70 0 -70 -70v-220s0 -71 70 -71h55s70 0 70 71z" />
    <glyph glyph-name="p" unicode="p" horiz-adv-x="498" 
d="M281 517c0 0 150 0 150 -148v-220c0 -149 -150 -149 -150 -149h-125v-219h-79v736h33l77 -77s0 77 40 77h54zM352 149v220s0 70 -71 70h-54s-71 0 -71 -70v-291h125s71 0 71 71z" />
    <glyph glyph-name="q" unicode="q" horiz-adv-x="497" 
d="M388 517h32v-736h-79v219h-125s-149 0 -149 149v220c0 148 149 148 149 148h55c39 0 39 -77 39 -77zM341 78v291c0 70 -70 70 -70 70h-55c-70 0 -70 -70 -70 -70v-220c0 -71 70 -71 70 -71h125z" />
    <glyph glyph-name="r" unicode="r" horiz-adv-x="346" 
d="M165 369v-291h110v-78h-243v78h55v439h31l79 -77s0 77 38 77h94v-78h-94s-70 0 -70 -70z" />
    <glyph glyph-name="mu" unicode="&#xb5;" horiz-adv-x="508" 
d="M352 517h79v-517h-33l-77 78c0 -78 -40 -78 -40 -78h-54s-24 0 -71 15v-234h-79v736h79v-368c0 -71 71 -71 71 -71h54c71 0 71 71 71 71v368z" />
    <glyph glyph-name="germandbls" unicode="&#xdf;" horiz-adv-x="546" 
d="M299 369c0 -37 38 -52 83 -71c59 -25 137 -61 137 -149c0 -149 -148 -149 -148 -149h-94v78h94s70 0 70 71c0 47 -44 65 -94 85c-58 23 -126 51 -126 135c0 48 35 87 66 121c29 32 55 63 55 98c0 70 -71 70 -71 70h-46c-70 0 -70 -70 -70 -70v-588h-78v588
c0 149 148 149 148 149h46s150 0 150 -149c0 -52 -38 -95 -70 -131c-27 -33 -52 -60 -52 -88z" />
    <glyph glyph-name="s" unicode="s" horiz-adv-x="438" 
d="M76 78v-78h170s150 0 150 138c0 110 -98 138 -173 160c-56 16 -102 31 -102 71c0 70 71 70 71 70h170v78h-170s-150 0 -150 -138c0 -112 99 -139 174 -160c56 -16 101 -29 101 -70c0 -71 -71 -71 -71 -71h-170z" />
    <glyph glyph-name="t" unicode="t" horiz-adv-x="316" 
d="M279 439h-110v-290s0 -71 72 -71h38v-78h-38s-150 0 -150 149v290h-54v13l122 175h10v-110h110v-78z" />
    <glyph glyph-name="u" unicode="u" horiz-adv-x="502" 
d="M72 517v-368c0 -149 149 -149 149 -149h55s39 0 39 78l78 -78h32v517h-79v-368s0 -71 -70 -71h-55s-70 0 -70 71v368h-79z" />
    <glyph glyph-name="v" unicode="v" horiz-adv-x="412" 
d="M323 517h82l-155 -517h-87l-156 517h83l116 -426z" />
    <glyph glyph-name="w" unicode="w" horiz-adv-x="719" 
d="M630 517h82l-156 -517h-86l-111 367l-110 -367h-86l-156 517h82l115 -423l118 379h75l118 -379z" />
    <glyph glyph-name="x" unicode="x" horiz-adv-x="421" 
d="M404 517l-139 -258l139 -259h-85l-109 208l-108 -208h-85l139 259l-139 258h85l108 -208l109 208h85z" />
    <glyph glyph-name="y" unicode="y" horiz-adv-x="418" 
d="M411 517l-160 -532v-56c0 -148 -150 -148 -150 -148h-94v78h94c71 0 71 70 71 70v56l-159 532h82l117 -426l116 426h83z" />
    <glyph glyph-name="z" unicode="z" horiz-adv-x="391" 
d="M344 517v-57l-198 -382h198v-78h-297v59l205 380h-205v78h297z" />
    <glyph glyph-name="ae" unicode="&#xe6;" horiz-adv-x="720" 
d="M399 149c0 0 0 -71 71 -71h203v-78h-203s-103 0 -134 68c-7 -68 -86 -68 -86 -68h-55s-148 0 -148 149s148 149 148 149h125v71c0 70 -70 70 -70 70h-171v78h171s56 0 110 -43c27 25 64 43 110 43h54s149 0 149 -148c0 0 0 -150 -149 -150h-125v-70zM470 439
c0 0 -71 0 -71 -70v-71h125s71 0 71 71c0 70 -71 70 -71 70h-54zM250 78c0 0 70 0 70 71v70h-125s-70 0 -70 -70c0 -71 70 -71 70 -71h55z" />
    <glyph glyph-name="oe" unicode="&#x153;" horiz-adv-x="760" 
d="M419 149c0 0 0 -71 71 -71h203v-78h-203s-57 0 -111 43c-27 -25 -64 -43 -109 -43h-55s-148 0 -148 149v220s0 148 148 148h55s56 0 110 -43c27 25 64 43 110 43h54s149 0 149 -148c0 0 0 -150 -149 -150h-125v-70zM270 78c0 0 70 0 70 71v220s0 70 -70 70h-55
s-70 0 -70 -70v-220s0 -71 70 -71h55zM490 439c0 0 -71 0 -71 -70v-71h125s71 0 71 71c0 70 -71 70 -71 70h-54z" />
    <glyph glyph-name="thorn" unicode="&#xfe;" horiz-adv-x="498" 
d="M281 517c0 0 150 0 150 -148v-220c0 -149 -150 -149 -150 -149h-125v-219h-79v956h79l-1 -298s15 78 72 78h54zM352 149v220s0 70 -71 70h-54s-71 0 -71 -70v-291h125s71 0 71 71z" />
    <glyph glyph-name="eth" unicode="&#xf0;" horiz-adv-x="483" 
d="M219 512l-34 28l54 66c-38 26 -77 45 -112 57c9 28 16 46 24 70c51 -14 97 -35 140 -65l58 71l33 -29l-57 -71c54 -57 86 -124 86 -194v-296c0 -109 -90 -149 -150 -149h-54c-110 0 -150 89 -150 149v110c0 109 89 148 150 148h125v38c0 44 -23 90 -58 133zM332 149v180
h-125c-33 -1 -71 -13 -71 -70v-110c1 -32 13 -71 71 -71h54c33 1 71 14 71 71z" />
    <glyph glyph-name="lslash" unicode="&#x142;" horiz-adv-x="242" 
d="M9 258l-15 42l87 35v402h79v-369l72 28l16 -41l-88 -37v-240h55v-78h-188v78h54v208z" />
    <glyph glyph-name="partialdiff" unicode="&#x2202;" horiz-adv-x="493" 
d="M325 517c-20 93 -122 135 -162 149l24 68c147 -26 234 -152 234 -255v-330c0 -109 -90 -149 -150 -149h-54c-110 0 -150 89 -150 149v220c0 108 89 148 150 148h108zM342 149v290h-125c-33 -1 -71 -14 -71 -70v-220c1 -32 13 -71 71 -71h54c33 1 71 14 71 71z" />
    <glyph glyph-name="oslash" unicode="&#xf8;" horiz-adv-x="488" 
d="M391 463c18 -22 30 -52 30 -94v-220s0 -149 -149 -149h-55s-46 0 -87 25l-22 -36l-37 25l25 41c-17 22 -29 52 -29 94v220s0 148 150 148h55s45 0 85 -25l22 37l38 -24zM147 149v-8l170 284c-11 8 -25 14 -45 14h-55s-70 0 -70 -70v-220zM342 149v220s0 4 -1 9l-170 -285
c10 -9 25 -15 46 -15h55s70 0 70 71z" />
    <glyph glyph-name="A" unicode="A" horiz-adv-x="461" 
d="M282 682l182 -682h-79l-30 110h-250l-29 -110h-79l181 682h104zM127 188h206l-95 410h-16z" />
    <glyph glyph-name="B" unicode="B" horiz-adv-x="532" 
d="M463 494c0 -68 -53 -114 -75 -134c34 -20 97 -70 97 -167c0 -107 -86 -193 -193 -193h-215v682h199c103 0 187 -83 187 -188zM292 78c63 0 114 52 114 115s-51 114 -114 114h-136v-229h136zM276 604h-120v-218h120c59 0 108 49 108 108c0 61 -49 110 -108 110z" />
    <glyph glyph-name="C" unicode="C" horiz-adv-x="507" 
d="M385 494h79c2 0 0 188 -203 188c-204 0 -204 -203 -204 -203v-275s0 -204 204 -204c203 0 203 188 203 188h-79s0 -110 -124 -110c-125 0 -125 126 -125 126v275s0 125 125 125c124 0 124 -110 124 -110z" />
    <glyph glyph-name="D" unicode="D" horiz-adv-x="542" 
d="M281 682c0 0 204 0 204 -203v-275s0 -204 -204 -204h-204v682h204zM406 204v275c0 125 -125 125 -125 125h-125v-526h125c125 0 125 126 125 126z" />
    <glyph glyph-name="E" unicode="E" 
d="M77 682h354v-78h-275v-197h219v-78h-219v-251h275v-78h-354v682z" />
    <glyph glyph-name="F" unicode="F" horiz-adv-x="411" 
d="M77 682h297v-78h-219v-251h219v-78h-219v-275h-78v682z" />
    <glyph glyph-name="G" unicode="G" horiz-adv-x="532" 
d="M261 0c69 0 97 65 107 86l66 -86h31v353h-188v-78h109v-71c0 -67 -44 -126 -125 -126c-125 0 -125 126 -125 126v275s0 125 125 125c124 0 124 -110 124 -110h79c0 40 -25 188 -203 188c-204 0 -204 -203 -204 -203v-275s0 -204 204 -204z" />
    <glyph glyph-name="H" unicode="H" horiz-adv-x="562" 
d="M77 682h79v-275h250v275h79v-682h-79v329h-250v-329h-79v682z" />
    <glyph glyph-name="I" unicode="I" horiz-adv-x="233" 
d="M77 0h79v682h-79v-682z" />
    <glyph glyph-name="J" unicode="J" horiz-adv-x="370" 
d="M225 682h78v-533c0 -82 -67 -149 -149 -149c-77 0 -139 60 -147 134h78c8 -31 37 -56 69 -56c39 0 71 33 71 71v533z" />
    <glyph glyph-name="K" unicode="K" horiz-adv-x="531" 
d="M323 429l201 -429h-91l-170 365l-107 -134v-231h-79v682h79v-354l247 354h96z" />
    <glyph glyph-name="L" unicode="L" horiz-adv-x="384" 
d="M156 682h-79v-682h310v78h-231v604z" />
    <glyph glyph-name="M" unicode="M" horiz-adv-x="671" 
d="M509 682h85v-682h-78v546l-180 -312l-181 312v-546h-78v682h85l174 -289z" />
    <glyph glyph-name="N" unicode="N" horiz-adv-x="562" 
d="M406 682h79v-682h-84l-245 521v-521h-79v682h84l245 -514v514z" />
    <glyph glyph-name="O" unicode="O" horiz-adv-x="522" 
d="M261 682c204 0 204 -203 204 -203v-275s0 -204 -204 -204s-204 204 -204 204v275s0 203 204 203zM386 204v275s0 125 -125 125s-125 -125 -125 -125v-275s0 -126 125 -126s125 126 125 126z" />
    <glyph glyph-name="P" unicode="P" horiz-adv-x="512" 
d="M281 681c0 0 204 0 204 -203c0 -204 -204 -204 -204 -204h-125v-274h-79v681h204zM281 352c0 0 125 0 125 126c0 125 -125 125 -125 125h-125v-251h125z" />
    <glyph glyph-name="Q" unicode="Q" horiz-adv-x="522" 
d="M465 204c0 0 0 -90 -68 -160l53 -80c-26 -17 -41 -28 -65 -43l-58 87c-23 -5 -45 -8 -66 -8c-204 0 -204 204 -204 204v275s0 203 204 203s204 -203 204 -203v-275zM136 204c0 0 0 -126 125 -126s125 126 125 126v275s0 125 -125 125s-125 -125 -125 -125v-275z" />
    <glyph glyph-name="R" unicode="R" horiz-adv-x="522" 
d="M485 478c0 -132 -98 -181 -166 -199l155 -279h-90l-152 274h-76v-274h-79v681h204s204 0 204 -203zM156 603v-251l132 1c25 2 118 18 118 125c0 125 -125 125 -125 125h-125z" />
    <glyph glyph-name="S" unicode="S" horiz-adv-x="482" 
d="M126 511c0 -113 319 -185 319 -340c0 -110 -91 -171 -204 -171h-149v77h149s115 1 114 94c-1 113 -318 182 -318 340c0 111 91 171 204 171h148v-78h-148s-115 0 -115 -93z" />
    <glyph glyph-name="T" unicode="T" horiz-adv-x="402" 
d="M-3 681h408v-78h-165v-603h-79v603h-164v78z" />
    <glyph glyph-name="U" unicode="U" horiz-adv-x="542" 
d="M396 681h79v-477s0 -204 -204 -204s-204 204 -204 204v477h79v-477s0 -126 125 -126s125 126 125 126v477z" />
    <glyph glyph-name="V" unicode="V" horiz-adv-x="471" 
d="M393 681h81l-210 -681h-57l-210 681h82l157 -532z" />
    <glyph glyph-name="W" unicode="W" horiz-adv-x="640" 
d="M545 681h78l-112 -681h-89l-102 370l-103 -370h-89l-111 681h78l85 -563l103 344h77l105 -344z" />
    <glyph glyph-name="X" unicode="X" horiz-adv-x="506" 
d="M479 682l-165 -340l164 -342h-86l-139 289l-140 -289h-86l164 342l-164 340h86l140 -289l139 289h87z" />
    <glyph glyph-name="Y" unicode="Y" horiz-adv-x="428" 
d="M441 682l-187 -388v-294h-79v294l-188 388h88l139 -308l140 308h87z" />
    <glyph glyph-name="Z" unicode="Z" horiz-adv-x="482" 
d="M445 681v-78l-320 -525h320v-78h-408v77l320 526h-320v78h408z" />
    <glyph glyph-name="AE" unicode="&#xc6;" horiz-adv-x="799" 
d="M757 604h-273v-195h219v-79h-219v-251h273v-78h-352v110h-265l-56 -110h-87l340 681h420v-78zM405 189v415l-24 1l-203 -416h227z" />
    <glyph glyph-name="OE" unicode="&#x152;" horiz-adv-x="781" 
d="M739 604h-274v-197h219v-78h-219v-251h274v-78h-352v50c-40 -30 -82 -50 -126 -50c-204 0 -204 204 -204 204v275s0 203 204 203c44 0 86 -20 126 -50v50h352v-78zM261 78c126 0 126 126 126 126v275s0 125 -126 125c-125 0 -125 -125 -125 -125v-275s0 -126 125 -126z
" />
    <glyph glyph-name="Thorn" unicode="&#xde;" horiz-adv-x="512" 
d="M156 541h125s204 0 204 -204c0 -203 -204 -203 -204 -203h-125v-134h-79v682h79v-141zM281 212c0 0 125 0 125 125c0 126 -125 126 -125 126h-125v-251h125z" />
    <glyph glyph-name="ampersand" unicode="&#x26;" horiz-adv-x="581" 
d="M261 380h313v-78h-110v-302h-203c-82 0 -204 50 -204 190c0 66 31 114 75 151c-44 37 -75 86 -75 151c0 139 122 190 204 190h149v-78h-149c-20 -1 -126 -7 -126 -112c0 -104 106 -112 126 -112zM386 78v224h-125c-20 0 -126 -7 -126 -112c0 -104 106 -112 126 -112h125z
" />
    <glyph glyph-name="Eth" unicode="&#xd0;" horiz-adv-x="541" 
d="M10 257l-18 42l84 34v349h204s204 0 204 -203v-275s0 -204 -204 -204h-204v283c-15 -5 -45 -18 -66 -26zM405 204v275c0 125 -125 125 -125 125h-126v-239c19 7 54 21 78 31c7 -19 9 -27 15 -42l-93 -38v-238h126c125 0 125 126 125 126z" />
    <glyph glyph-name="Lslash" unicode="&#x141;" horiz-adv-x="369" 
d="M10 257l64 26v-283h298v78h-219v238l95 38c-5 12 -12 26 -18 42l-77 -32v318h-79v-349l-82 -33z" />
    <glyph glyph-name="Oslash" unicode="&#xd8;" horiz-adv-x="512" 
d="M75 -8l-39 25l46 75c-30 59 -30 112 -30 112v275s0 203 204 203c60 0 109 -24 146 -54c9 16 24 40 36 59c18 -10 25 -16 38 -25l-46 -74c30 -58 30 -109 30 -109v-275s0 -204 -204 -204c-60 0 -107 22 -145 53c-9 -13 -24 -43 -36 -61zM131 479v-306l226 382
c-22 28 -54 49 -101 49c-125 0 -125 -125 -125 -125zM381 204v302l-226 -380c24 -28 54 -48 101 -48c125 0 125 126 125 126z" />
    <glyph glyph-name="yen" unicode="&#xa5;" horiz-adv-x="466" 
d="M56 262v46h130l-179 374h86l140 -309l139 309h87l-180 -374h130v-46h-137v-85h137v-46h-137v-132h-79v132h-137v46h137v85h-137z" />
    <glyph glyph-name="dollar" unicode="$" horiz-adv-x="492" 
d="M269 -55h-46v55h-125v78h125v224c-132 18 -181 120 -181 190s49 171 181 189v56h46v-55h126v-78h-126v-225c132 -18 181 -119 181 -189s-49 -172 -181 -190v-55zM121 492c0 -22 9 -89 102 -113v225c-93 -23 -102 -90 -102 -112zM371 189c0 22 -10 90 -102 113v-225
c92 24 102 91 102 112z" />
    <glyph glyph-name="cent" unicode="&#xa2;" horiz-adv-x="517" 
d="M470 134c-43 -32 -96 -51 -154 -51c-19 0 -38 2 -56 6l-17 -89h-46l20 103c-94 39 -160 131 -160 239c0 141 114 256 254 258l16 82h47l-16 -85c41 -7 79 -24 112 -48l-48 -62c-23 17 -50 29 -79 33l-68 -354c13 -3 27 -5 41 -5c40 0 77 13 107 36zM135 342
c0 -70 39 -130 97 -160l64 339c-90 -10 -161 -86 -161 -179z" />
    <glyph glyph-name="Euro" unicode="&#x20ac;" horiz-adv-x="640" 
d="M568 122l45 -63c-54 -37 -120 -59 -191 -59c-128 0 -241 71 -299 176l-116 -27v47l97 23c-11 26 -18 54 -21 84l-76 -18v46l74 17c4 186 155 335 341 335c71 0 136 -22 191 -58l-44 -65c-42 28 -93 45 -147 45c-136 0 -249 -104 -262 -238l421 102v-46l-421 -102
c2 -30 9 -58 20 -84l401 96v-46l-378 -91c47 -71 128 -118 219 -118c54 0 105 16 146 44z" />
    <glyph glyph-name="sterling" unicode="&#xa3;" 
d="M94 479c0 -38 8 -78 19 -115h-85v-45h97c10 -40 18 -81 18 -115c0 -83 -116 -123 -116 -123c0 -26 1 -51 1 -81h408v78h-321s107 47 107 126c0 40 -11 79 -20 115h178v45h-192c-9 35 -16 73 -16 115c0 28 11 125 126 125h94v78h-94c-150 0 -204 -122 -204 -203z" />
    <glyph glyph-name="parenleft" unicode="(" horiz-adv-x="288" 
d="M57 259c0 170 63 329 113 423h91c-45 -76 -126 -236 -126 -423c0 -188 81 -348 126 -424h-91c-50 94 -113 253 -113 424z" />
    <glyph glyph-name="braceleft" unicode="{" horiz-adv-x="320" 
d="M275 -165h18v78h-18c-56 0 -70 39 -70 72v164s0 95 -88 95v29c88 0 88 96 88 96v164c0 56 38 70 71 71h17v78h-18c-59 0 -148 -39 -148 -149v-164c0 -57 -110 -80 -110 -80v-60c31 -5 110 -24 110 -80v-165c0 -59 39 -149 148 -149z" />
    <glyph glyph-name="bracketleft" unicode="[" horiz-adv-x="302" 
d="M275 604h-110v-691h110v-78h-188v847h188v-78z" />
    <glyph glyph-name="bar" unicode="|" horiz-adv-x="204" 
d="M77 -165h50v847h-50v-847z" />
    <glyph glyph-name="brokenbar" unicode="&#xa6;" horiz-adv-x="205" 
d="M77 682h51v-353h-51v353zM77 -165v353h51v-353h-51z" />
    <glyph glyph-name="slash" unicode="/" horiz-adv-x="305" 
d="M37 -110l164 792h67l-165 -792h-66z" />
    <glyph glyph-name="perthousand" unicode="&#x2030;" horiz-adv-x="1326" 
d="M690 353c97 0 177 -79 177 -176c0 -99 -80 -177 -177 -177c-98 0 -176 78 -176 177c0 97 78 176 176 176zM1107 353c97 0 177 -79 177 -176c0 -99 -80 -177 -177 -177c-98 0 -177 78 -177 177c0 97 79 176 177 176zM218 682c98 0 176 -79 176 -176
c0 -99 -78 -177 -176 -177c-97 0 -176 78 -176 177c0 97 79 176 176 176zM218 397c61 0 110 49 110 109c0 59 -49 108 -110 108c-60 0 -109 -49 -109 -108c0 -60 49 -109 109 -109zM1107 68c60 0 109 49 109 109c0 59 -49 108 -109 108s-109 -49 -109 -108
c0 -60 49 -109 109 -109zM690 68c60 0 109 49 109 109c0 59 -49 108 -109 108c-59 0 -108 -49 -108 -108c0 -60 49 -109 108 -109zM275 0h-60l408 682h60z" />
    <glyph glyph-name="onehalf" unicode="&#xbd;" horiz-adv-x="738" 
d="M177 682v-300h67v-53h-187v53h66v246h-66v54h120zM681 260c0 -113 -142 -207 -142 -207h142v-53h-208v57s154 100 154 203c0 30 -22 38 -38 40h-35c-26 0 -35 -16 -37 -35h-55c5 39 31 88 92 88h34c37 0 93 -24 93 -93zM200 0h-60l408 682h60z" />
    <glyph glyph-name="onequarter" unicode="&#xbc;" horiz-adv-x="725" 
d="M636 119h32v-53h-32v-67h-55v67h-140v59l85 227h59l-92 -233h88v67h55v-67zM177 682v-300h67v-53h-187v53h67v246h-67v54h120zM200 0h-60l408 682h60z" />
    <glyph glyph-name="threequarters" unicode="&#xbe;" horiz-adv-x="727" 
d="M182 682c0 0 93 0 93 -94c0 -24 -11 -52 -38 -83c24 -24 38 -44 38 -78c0 -95 -94 -98 -94 -98h-32c-69 0 -88 59 -92 88h54c0 -35 38 -35 38 -35h33c39 0 39 44 39 44c0 56 -35 56 -52 57h-14c0 15 1 30 1 41h10c55 0 55 59 55 59s0 45 -39 45h-33s-30 1 -38 -34h-54
s19 88 92 88h33zM638 120h32v-53h-32v-67h-55v67h-141v59l85 227h60l-92 -233h88v67h55v-67zM199 0h-60l408 682h60z" />
    <glyph glyph-name="twosuperior" unicode="&#xb2;" horiz-adv-x="303" 
d="M261 589c0 -113 -142 -207 -142 -207h142v-53h-208v57s154 100 154 203c0 30 -22 38 -38 40h-35c-26 0 -35 -16 -37 -35c-23 0 -36 2 -55 2c5 39 31 86 92 86h34c37 0 93 -24 93 -93z" />
    <glyph glyph-name="dagger" unicode="&#x2020;" horiz-adv-x="425" 
d="M383 517v-45h-131v-480l-40 -40l-39 40v480h-131v45h131v165h79v-165h131z" />
    <glyph glyph-name="daggerdbl" unicode="&#x2021;" horiz-adv-x="425" 
d="M252 472v-262h131v-45h-131v-173l-40 -40l-39 40v173h-131v45h131v262h-131v45h131v165h79v-165h131v-45h-131z" />
    <glyph glyph-name="colon" unicode=":" horiz-adv-x="181" 
d="M42 1v96h97v-96h-97zM42 470h97v-97h-97v97z" />
    <glyph glyph-name="semicolon" unicode=";" horiz-adv-x="176" 
d="M42 0v96h97v-101c0 -88 -56 -120 -72 -127c-7 11 -16 20 -23 31c67 26 45 101 45 101h-47zM42 470h97v-97h-97v97z" />
    <glyph glyph-name="ellipsis" unicode="&#x2026;" horiz-adv-x="696" 
d="M42 75l75 74l74 -74l-74 -74zM274 75l74 74l75 -74l-75 -74zM580 149l74 -74l-74 -74l-74 74z" />
    <glyph glyph-name="quotedbl" unicode="&#x22;" horiz-adv-x="305" 
d="M42 567v115h69v-115l-26 -154h-16zM194 682h69v-115l-27 -154h-16l-26 154v115z" />
    <glyph glyph-name="quotedblright" unicode="&#x201d;" horiz-adv-x="341" 
d="M42 585v96h97v-101c0 -88 -56 -120 -72 -127c-7 11 -16 20 -23 31c67 26 45 101 45 101h-47zM202 585v96h97v-101c0 -88 -56 -120 -72 -127c-7 11 -16 20 -23 31c67 26 45 101 45 101h-47z" />
    <glyph glyph-name="paragraph" unicode="&#xb6;" horiz-adv-x="556" 
d="M27 479c0 108 82 197 188 203v-407c-106 6 -188 95 -188 204zM302 -110v792h45v-792h-45zM434 682h45v-792h-45v792z" />
    <glyph glyph-name="exclam" unicode="!" horiz-adv-x="238" 
d="M69 682h100v-85c-10 -129 -22 -249 -32 -378h-37l-31 378v85zM70 1v96h97v-96h-97z" />
    <glyph glyph-name="question" unicode="?" horiz-adv-x="437" 
d="M246 682c60 0 149 -39 149 -149c0 -64 -40 -110 -80 -155c-38 -47 -89 -91 -93 -159h-48c2 97 40 159 82 209c36 43 60 72 60 105c0 56 -38 70 -69 71h-55c-28 -1 -62 -15 -70 -55h-80c7 100 91 133 149 133h55zM153 1v96h97v-96h-97z" />
    <glyph glyph-name="space" unicode=" " horiz-adv-x="300" 
 />
    <glyph glyph-name="percent" unicode="%" horiz-adv-x="909" 
d="M690 353c97 0 177 -79 177 -176c0 -99 -80 -177 -177 -177c-98 0 -176 78 -176 177c0 97 78 176 176 176zM218 682c98 0 176 -79 176 -176c0 -99 -78 -177 -176 -177c-97 0 -176 78 -176 177c0 97 79 176 176 176zM218 397c60 0 110 49 110 109c0 59 -50 108 -110 108
s-109 -49 -109 -108c0 -60 49 -109 109 -109zM690 68c60 0 109 49 109 109c0 59 -49 108 -109 108c-59 0 -109 -49 -109 -108c0 -60 50 -109 109 -109zM275 0h-60l408 682h60z" />
    <glyph glyph-name="onesuperior" unicode="&#xb9;" horiz-adv-x="271" 
d="M162 682v-300h67v-53h-187v53h67v246h-67v54h120z" />
    <glyph glyph-name="threesuperior" unicode="&#xb3;" horiz-adv-x="303" 
d="M168 682c0 0 93 0 93 -94c0 -24 -12 -52 -39 -83c24 -24 39 -44 39 -78c0 -95 -94 -98 -94 -98h-33c-69 0 -87 59 -92 88h55c0 -35 37 -35 37 -35h34c38 0 38 44 38 44c0 56 -34 56 -52 57h-13c0 15 1 30 1 41h9c55 0 55 59 55 59s0 45 -38 45h-34s-30 1 -37 -34h-55
s19 88 92 88h34z" />
    <glyph glyph-name="quotesingle" unicode="'" horiz-adv-x="152" 
d="M42 567v115h68v-115c-9 -48 -16 -105 -26 -154h-16c-11 53 -16 102 -26 154z" />
    <glyph glyph-name="parenright" unicode=")" horiz-adv-x="288" 
d="M231 259c0 170 -63 329 -113 423h-91c45 -76 126 -236 126 -423c0 -188 -81 -348 -126 -424h91c50 94 113 253 113 424z" />
    <glyph glyph-name="hyphen" unicode="-" horiz-adv-x="381" 
d="M42 298h297v-79h-297v79z" />
    <glyph glyph-name="bracketright" unicode="]" horiz-adv-x="302" 
d="M27 682v-78h110v-691h-110v-78h188v847h-188z" />
    <glyph glyph-name="braceright" unicode="}" horiz-adv-x="320" 
d="M45 -165h-18v78h18c56 0 70 39 70 72v164s0 95 88 95v29c-88 0 -88 96 -88 96v164c0 56 -38 70 -71 71h-17v78h18c59 0 148 -39 148 -149v-164c0 -57 110 -80 110 -80v-60c-31 -5 -110 -24 -110 -80v-165c0 -59 -39 -149 -148 -149z" />
    <glyph glyph-name="guillemotleft" unicode="&#xab;" horiz-adv-x="568" 
d="M451 55l-194 204l194 204h90l-190 -204l190 -204h-90zM220 55l-193 204l193 204h90l-190 -204l190 -204h-90z" />
    <glyph glyph-name="guillemotright" unicode="&#xbb;" horiz-adv-x="568" 
d="M258 55h90l193 204l-193 204h-90l190 -204zM27 55h90l194 204l-194 204h-90l190 -204z" />
    <glyph glyph-name="guilsinglleft" unicode="&#x2039;" horiz-adv-x="337" 
d="M220 55l-193 204l193 204h90l-190 -204l190 -204h-90z" />
    <glyph glyph-name="guilsinglright" unicode="&#x203a;" horiz-adv-x="338" 
d="M27 55h90l194 204l-194 204h-90l190 -204z" />
    <glyph glyph-name="logicalnot" unicode="&#xac;" horiz-adv-x="492" 
d="M42 386h408v-243h-79v164h-329v79z" />
    <glyph glyph-name="bullet" unicode="&#x2022;" horiz-adv-x="305" 
d="M263 259c0 61 -49 110 -111 110c-61 0 -110 -49 -110 -110c0 -62 49 -111 110 -111c62 0 111 49 111 111z" />
    <glyph glyph-name="periodcentered" unicode="&#xb7;" horiz-adv-x="181" 
d="M42 211v96h97v-96h-97z" />
    <glyph glyph-name="notequal" unicode="&#x2260;" horiz-adv-x="492" 
d="M450 329h-168l-27 -141h195v-78h-210c-5 -33 -15 -76 -21 -110h-46l21 110h-152v78h167l27 141h-194v78h209c5 33 15 76 21 110h46l-21 -110h153v-78z" />
    <glyph glyph-name="plusminus" unicode="&#xb1;" horiz-adv-x="437" 
d="M258 380h137v-78h-137v-137h-79v137h-137v78h137v137h79v-137zM42 0v78h353v-78h-353z" />
    <glyph glyph-name="lessequal" unicode="&#x2264;" horiz-adv-x="384" 
d="M341 424v85l-297 -130v-96l297 -130v86l-234 92zM42 0v78h300v-78h-300z" />
    <glyph glyph-name="greaterequal" unicode="&#x2265;" horiz-adv-x="384" 
d="M44 509l297 -129v-97l-297 -130v86l234 92l-234 93v85zM42 0v78h300v-78h-300z" />
    <glyph glyph-name="less" unicode="&#x3c;" horiz-adv-x="428" 
d="M401 10l-374 214v70l374 213v-96l-291 -152l291 -152v-97z" />
    <glyph glyph-name="greater" unicode="&#x3e;" horiz-adv-x="428" 
d="M27 10l374 215v69l-374 213v-96l291 -152l-291 -152v-97z" />
    <glyph glyph-name="ordmasculine" unicode="&#xba;" horiz-adv-x="286" 
d="M170 683c0 0 74 0 74 -74v-107s0 -75 -74 -75h-53s-75 0 -75 75v107s0 74 75 74h53zM202 502v107s0 31 -32 31h-53s-32 0 -32 -31v-107s0 -32 32 -32h53s32 0 32 32zM42 256v43h202v-43h-202zM42 341v43h202v-43h-202z" />
    <glyph glyph-name="ordfeminine" unicode="&#xaa;" horiz-adv-x="286" 
d="M169 683c31 0 75 -20 75 -74v-107c0 -30 -20 -75 -75 -75h-52c-31 0 -75 20 -75 75c0 68 87 76 159 97v10c0 25 -17 31 -32 31h-105v43h105zM42 256v43h202v-43h-202zM42 341v43h202v-43h-202zM201 502v53c-49 -14 -117 -19 -117 -53c0 -24 18 -31 33 -32h52
c26 0 32 18 32 32z" />
    <glyph glyph-name="summation" unicode="&#x2211;" horiz-adv-x="460" 
d="M433 682v-78h-296l196 -317l-196 -318h296v-79h-406v67l208 330l-208 328v67h406z" />
    <glyph glyph-name="product" unicode="&#x220f;" horiz-adv-x="551" 
d="M534 682v-78h-110v-603h-78v603h-141v-603h-78v603h-110v78h517z" />
    <glyph glyph-name="pi" unicode="&#x3c0;" horiz-adv-x="551" 
d="M534 518v-78h-110v-439h-78v439h-141v-439h-78v439h-110v78h517z" />
    <glyph glyph-name="asciitilde" unicode="~" horiz-adv-x="600" 
d="M122 219l-80 1c7 59 49 133 149 133c71 0 109 -39 137 -66c30 -30 44 -44 82 -44c47 0 65 30 70 57c30 0 51 -1 78 -1c-6 -59 -48 -134 -148 -134c-71 0 -110 40 -138 67h1c-30 30 -44 43 -82 43c-48 0 -65 -26 -69 -56z" />
    <glyph glyph-name="asciicircum" unicode="^" horiz-adv-x="569" 
d="M228 419h113l186 -279l-63 -44l-180 269l-179 -269c-26 18 -39 29 -63 45z" />
    <glyph glyph-name="infinity" unicode="&#x221e;" horiz-adv-x="558" 
d="M164 381c68 0 102 -57 115 -72c30 36 69 72 116 72c89 0 121 -73 121 -121c0 -50 -32 -123 -121 -123c-47 0 -84 33 -116 73c-31 -40 -69 -73 -115 -73c-89 0 -122 73 -122 123c0 88 73 121 122 121zM395 322c-26 0 -52 -29 -77 -62c25 -35 51 -63 77 -63
c56 0 62 49 62 62c0 14 -6 63 -62 63zM102 260c0 -14 6 -63 62 -63c26 0 51 28 77 63c-26 33 -51 62 -77 62c-15 -1 -62 -6 -62 -62z" />
    <glyph glyph-name="integral" unicode="&#x222b;" horiz-adv-x="243" 
d="M83 533c0 57 33 143 133 149v-79c-46 -5 -54 -40 -54 -70v-549c0 -100 -75 -142 -134 -148c0 31 -1 50 -1 78c29 5 56 20 56 70v549z" />
    <glyph glyph-name="Omega" unicode="&#x2126;" horiz-adv-x="706" 
d="M530 171v-93h109v-78h-188v211c6 4 13 8 18 13h-1c57 38 93 102 93 172c0 114 -94 208 -208 208c-115 0 -208 -94 -208 -208c0 -70 36 -134 93 -172h-1c6 -5 12 -9 18 -13v-211h-188v78h109v93c-69 57 -109 138 -109 225c0 158 128 286 286 286s286 -128 286 -286
c0 -87 -40 -168 -109 -225z" />
    <glyph glyph-name="radical" unicode="&#x221a;" horiz-adv-x="628" 
d="M444 682h177v-78h-120l-201 -604h-94l-189 517h84l150 -440z" />
    <glyph glyph-name="approxequal" unicode="&#x2248;" horiz-adv-x="599" 
d="M189 384c-48 0 -64 -26 -69 -55c-30 0 -51 1 -78 1c6 59 47 133 147 133c70 0 110 -39 137 -66c30 -30 45 -44 83 -44c47 0 64 29 70 57c30 0 51 -1 78 -1c-6 -59 -48 -134 -148 -134c-71 0 -110 39 -138 67h1c-30 30 -44 42 -83 42zM409 134c47 0 64 29 70 56
c30 0 51 -1 78 -1c-6 -58 -48 -134 -148 -134c-71 0 -110 40 -138 67h1c-30 31 -44 43 -83 43c-48 0 -64 -26 -69 -55c-30 0 -51 1 -78 1c6 58 47 132 147 132c70 0 110 -38 137 -65c30 -31 45 -44 83 -44z" />
    <glyph glyph-name="Delta" unicode="&#x2206;" horiz-adv-x="582" 
d="M291 668l284 -667h-568zM291 488l-158 -409h321z" />
    <glyph glyph-name="lozenge" unicode="&#x25ca;" horiz-adv-x="563" 
d="M281 532l275 -274l-275 -275l-274 275zM117 258l164 -165l165 165l-165 165z" />
    <glyph glyph-name="quotedblleft" unicode="&#x201c;" horiz-adv-x="341" 
d="M299 549v-96h-97v101c0 88 56 120 72 127c7 -11 16 -20 23 -31c-67 -26 -45 -101 -45 -101h47zM139 549v-96h-97v101c0 88 56 120 72 127c7 -11 16 -20 23 -31c-67 -26 -45 -101 -45 -101h47z" />
    <glyph glyph-name="florin" unicode="&#x192;" horiz-adv-x="412" 
d="M246 737c119 0 143 -94 149 -133h-80s-20 54 -69 54c-70 0 -70 -70 -70 -70v-181h55v-78h-55v-548h-78v548h-56v78h56v181c0 149 148 149 148 149z" />
    <glyph glyph-name="copyright" unicode="&#xa9;" horiz-adv-x="796" 
d="M398 683c188 0 341 -154 341 -342s-153 -341 -341 -341s-341 153 -341 341s153 342 341 342zM398 68c151 0 273 123 273 273c0 151 -122 274 -273 274s-273 -123 -273 -274c0 -150 122 -273 273 -273zM524 470l-44 -44c-22 19 -48 30 -77 30c-69 0 -113 -49 -113 -115
c0 -68 43 -114 113 -114c29 0 57 10 78 30c17 -16 28 -29 43 -44c-35 -32 -76 -48 -120 -48c-105 0 -176 72 -176 177c0 106 81 175 176 175c44 0 85 -15 120 -47z" />
    <glyph glyph-name="registered" unicode="&#xae;" horiz-adv-x="497" 
d="M249 683c114 0 206 -94 206 -207c0 -114 -92 -206 -206 -206s-207 92 -207 206c0 113 93 207 207 207zM249 314c88 0 160 73 160 162s-72 161 -160 161c-89 0 -161 -72 -161 -161s72 -162 161 -162zM321 514c0 -38 -33 -49 -33 -49l46 -84h-35l-41 80h-57v-80h-29v189h94
c23 0 55 -16 55 -56zM266 489c11 0 26 5 26 25c0 21 -15 27 -26 27h-65v-52h65z" />
    <glyph glyph-name="trademark" unicode="&#x2122;" horiz-adv-x="577" 
d="M406 545l78 138h51v-257h-44v179l-85 -148l-84 148v-179h-44v257h51zM91 426v213h-79v44h203v-44h-80v-213h-44z" />
    <glyph glyph-name="section" unicode="&#xa7;" horiz-adv-x="447" 
d="M327 182c12 -7 73 -32 73 -142c0 -150 -149 -150 -149 -150h-149v79h149s70 0 70 71c0 70 -70 70 -70 70h-55s-149 0 -149 149c0 66 39 109 84 137c-44 26 -84 69 -84 137c0 149 149 149 149 149h149v-78h-149s-70 0 -70 -71c0 -70 70 -70 70 -70h55s149 0 149 -150
c0 -66 -41 -111 -73 -131zM321 259v54s0 71 -70 71h-55s-70 0 -70 -71v-54s0 -71 70 -71h55s70 0 70 71z" />
    <glyph glyph-name="at" unicode="@" horiz-adv-x="641" 
d="M426 517c148 0 148 -148 148 -148v-220c0 -82 -66 -149 -148 -149c-93 0 -119 50 -129 72c-5 -23 -38 -72 -91 -72c-82 0 -149 67 -149 149c0 83 67 149 149 149h149v-149c0 -38 32 -71 71 -71c38 0 70 33 70 71v220c0 70 -70 70 -70 70h-369v78h369zM206 78
c39 0 70 33 70 71v70h-70c-38 0 -71 -31 -71 -70c0 -38 33 -71 71 -71z" />
    <glyph glyph-name="exclamdown" unicode="&#xa1;" horiz-adv-x="238" 
d="M158 683h-79v-78h79v78zM69 87v-86h100v86c-10 124 -22 252 -32 377h-37c-10 -129 -21 -249 -31 -377z" />
    <glyph glyph-name="questiondown" unicode="&#xbf;" horiz-adv-x="437" 
d="M192 2c-60 0 -149 39 -149 149c0 64 40 110 80 155c38 47 89 91 93 159h48c-2 -97 -40 -159 -82 -209c-36 -43 -60 -72 -60 -105c0 -56 38 -70 69 -71h55c28 1 62 15 70 55h80c-7 -100 -91 -133 -149 -133h-55zM285 683v-96h-97v96h97z" />
    <glyph glyph-name="fraction" unicode="&#x2044;" horiz-adv-x="502" 
d="M77 0h-60l408 682h60z" />
    <glyph glyph-name="endash" unicode="&#x2013;" horiz-adv-x="367" 
d="M7 286v-50h353v50h-353z" />
    <glyph glyph-name="emdash" unicode="&#x2014;" horiz-adv-x="640" 
d="M7 286h626v-50h-626v50z" />
    <glyph glyph-name="CR" unicode="&#xd;" horiz-adv-x="0" 
 />
    <glyph glyph-name="uni00A0" unicode="&#xa0;" horiz-adv-x="0" 
 />
    <glyph glyph-name="RS" horiz-adv-x="0" 
 />
    <glyph glyph-name="DEL" horiz-adv-x="0" 
 />
    <glyph glyph-name="dotlessi" unicode="&#x131;" horiz-adv-x="272" 
d="M176 78h54v-78h-188v78h55v439h79v-439z" />
    <glyph glyph-name="backslash" unicode="\" horiz-adv-x="305" 
d="M202 -110h66l-165 792h-66z" />
    <glyph glyph-name="asterisk" unicode="*" horiz-adv-x="381" 
d="M210 681l3 -116l114 33c5 -11 9 -23 12 -35l-112 -40l70 -105c-10 -9 -17 -16 -28 -21l-78 100l-78 -100c-14 7 -21 12 -30 21l73 105c-32 12 -80 27 -114 39c3 12 8 25 13 36l113 -34c1 33 4 82 5 117c15 2 22 2 37 0z" />
    <glyph glyph-name="circumflex" unicode="&#x2c6;" horiz-adv-x="365" 
d="M252 596h71l-113 141h-55l-113 -141h71l69 88z" />
    <glyph glyph-name="tilde" unicode="&#x2dc;" horiz-adv-x="385" 
d="M257 674c34 0 47 37 51 52h35c-6 -44 -41 -121 -86 -121c-19 0 -45 16 -68 28c-22 11 -43 24 -62 24c-32 0 -46 -36 -51 -52h-34c6 42 41 121 85 121c20 0 46 -16 69 -28c21 -11 44 -24 61 -24z" />
    <glyph glyph-name="macron" unicode="&#xaf;" horiz-adv-x="335" 
d="M42 638h251v55h-251v-55z" />
    <glyph glyph-name="dotaccent" unicode="&#x2d9;" horiz-adv-x="171" 
d="M129 704v-87h-87v87h87z" />
    <glyph glyph-name="caron" unicode="&#x2c7;" horiz-adv-x="365" 
d="M323 736l-113 -141h-55l-113 141h71l69 -87c21 25 47 60 69 87h72z" />
    <glyph glyph-name="hungarumlaut" unicode="&#x2dd;" horiz-adv-x="343" 
d="M230 595l71 141h-59l-70 -141h58zM100 595l71 141h-59l-70 -141h58z" />
    <glyph glyph-name="breve" unicode="&#x2d8;" horiz-adv-x="355" 
d="M275 736h38c-5 -78 -64 -141 -136 -141c-71 0 -130 63 -135 141h38c5 -44 46 -75 97 -75s93 31 98 75z" />
    <glyph glyph-name="cedilla" unicode="&#xb8;" horiz-adv-x="246" 
d="M139 -57v91h-65v-99h1c28 0 53 -25 53 -53c0 -29 -25 -54 -53 -54h-33v-44h33c89 0 129 37 129 81c0 59 -49 78 -65 78z" />
    <glyph glyph-name="ogonek" unicode="&#x2db;" horiz-adv-x="225" 
d="M183 -216v76c-40 4 -75 30 -75 65c0 46 40 71 75 75v44c-78 -5 -141 -64 -141 -136c0 -71 57 -120 141 -124z" />
    <glyph glyph-name="grave" unicode="`" horiz-adv-x="237" 
d="M42 736h82l71 -141h-59z" />
    <glyph glyph-name="dieresis" unicode="&#xa8;" horiz-adv-x="356" 
d="M314 704v-87h-88v87h88zM130 704v-87h-88v87h88z" />
    <glyph glyph-name="acute" unicode="&#xb4;" horiz-adv-x="237" 
d="M195 736h-82l-71 -141h60z" />
    <glyph glyph-name="degree" unicode="&#xb0;" horiz-adv-x="275" 
d="M42 586c0 53 43 97 96 97s95 -44 95 -97c0 -52 -42 -96 -95 -96s-96 44 -96 96zM83 586c0 -30 25 -54 55 -54c29 0 54 24 54 54c0 31 -25 54 -54 54c-30 0 -55 -23 -55 -54z" />
    <glyph glyph-name="apple" unicode="&#xf8ff;" horiz-adv-x="1141" 
d="M77 676h987v-676h-987v676zM96 29v-9h10l211 211h5l-211 -211h19l211 211h5l-211 -211h18l212 211h4l-211 -211h19l211 211h5l-211 -211h19l211 211h5l-212 -211h19l211 211h5l-211 -211h19l211 211h5l-211 -211h19l211 211h4l-211 -211h19l211 211h-11v150h38v-113
l37 38v-38l38 38v-38l37 38v-75h-16l-211 -211h19l211 211h5l-211 -211h18l211 211h5l-211 -211h19l211 211h5l-211 -211h19l211 211h4l-211 -211h19l211 211h5l-211 -211h19l211 211h5l-211 -211h18l211 211h5l-211 -211h19l211 211h5l-211 -211h19l211 211h4l-211 -211h19
l211 211h5l-211 -211h19l211 211h5l-211 -211h18l211 211h5l-211 -211h19l211 211h5l-211 -211h19l211 211h4l-211 -211h19l211 211h5l-211 -211h19l211 211h5l-211 -211h18l211 211h5l-211 -211h19l206 206v219h-948v-223l9 9h5l-14 -14v-18l32 32h5l-37 -37v-19l56 56h5
l-61 -61v-19l80 80h5l-85 -84v-19l103 103h5l-108 -108v-19l127 127h5l-132 -132v-18l151 150h4l-155 -155v-19l174 174h5l-179 -179v-19l198 198h5zM1003 20l41 41v19l-60 -60h19zM1044 56l-36 -36h19l17 17v19zM980 20l64 64v19l-83 -83h19zM956 20l88 88v19l-107 -107h19
zM932 20l112 112v18l-130 -130h18zM909 20l135 135v19l-154 -154h19zM885 20l159 159v19l-178 -178h19zM862 20l182 182v19l-201 -201h19zM535 231l-211 -211h18l211 211h-18zM319 20l211 211h-19l-211 -211h19zM558 231l-211 -211h19l211 211h-19zM582 231l-211 -211h19
l211 211h-19zM605 231l-211 -211h19l211 211h-19zM1032 20h12v12z" />
    <glyph glyph-name="quotesinglbase" unicode="&#x201a;" horiz-adv-x="181" 
d="M42 0v96h97v-101c0 -88 -56 -120 -72 -127c-7 11 -16 20 -23 31c67 26 45 101 45 101h-47z" />
    <glyph glyph-name="quoteleft" unicode="&#x2018;" horiz-adv-x="181" 
d="M139 549v-96h-97v101c0 88 56 120 72 127c7 -11 16 -20 23 -31c-67 -26 -45 -101 -45 -101h47z" />
    <glyph glyph-name="quoteright" unicode="&#x2019;" horiz-adv-x="181" 
d="M42 585v96h97v-101c0 -88 -56 -120 -72 -127c-7 11 -16 20 -23 31c67 26 45 101 45 101h-47z" />
    <glyph glyph-name="comma" unicode="," horiz-adv-x="181" 
d="M42 0v96h97v-101c0 -88 -56 -120 -72 -127c-7 11 -16 20 -23 31c67 26 45 101 45 101h-47z" />
    <glyph glyph-name="period" unicode="." horiz-adv-x="180" 
d="M42 1v96h96v-96h-96z" />
    <glyph glyph-name="quotedblbase" unicode="&#x201e;" horiz-adv-x="361" 
d="M42 0v96h97v-101c0 -88 -56 -120 -72 -127c-7 11 -16 20 -23 31c67 26 45 101 45 101h-47zM222 0v96h97v-101c0 -88 -56 -120 -72 -127c-7 11 -16 20 -23 31c67 26 45 101 45 101h-47z" />
    <glyph glyph-name="g" unicode="g" horiz-adv-x="487" 
d="M42 -93c0 93 81 93 84 93c-3 2 -84 12 -84 106c0 43 39 74 81 93c-29 30 -48 67 -48 114v56s0 148 149 148h204v-51l-79 -27c79 0 79 -70 79 -70v-56s0 -148 -150 -148h-54s-39 0 -85 23c-17 -11 -30 -28 -30 -50c0 -60 60 -60 60 -60h143s148 0 148 -149
c0 0 0 -148 -148 -148h-133s-137 0 -137 126zM312 0h-133c-14 0 -70 -9 -70 -71c0 -70 70 -70 70 -70h133s70 0 70 70c0 0 0 71 -70 71zM349 313v56s0 70 -71 70h-54s-71 0 -71 -70v-56s0 -70 71 -70h54s71 0 71 70z" />
    <glyph glyph-name="Aacute" unicode="&#xc1;" horiz-adv-x="461" 
d="M282 682l182 -682h-79l-30 110h-250l-29 -110h-79l181 682h104zM127 188h206l-95 410h-16zM352 884h-82l-71 -141h60z" />
    <glyph glyph-name="Agrave" unicode="&#xc0;" horiz-adv-x="461" 
d="M282 682l182 -682h-79l-30 110h-250l-29 -110h-79l181 682h104zM127 188h206l-95 410h-16zM108 884h82l71 -141h-59z" />
    <glyph glyph-name="Acircumflex" unicode="&#xc2;" horiz-adv-x="461" 
d="M282 682l182 -682h-79l-30 110h-250l-29 -110h-79l181 682h104zM127 188h206l-95 410h-16zM300 744h71l-113 141h-55l-113 -141h71l69 88z" />
    <glyph glyph-name="Adieresis" unicode="&#xc4;" horiz-adv-x="461" 
d="M282 682l182 -682h-79l-30 110h-250l-29 -110h-79l181 682h104zM127 188h206l-95 410h-16zM366 852v-87h-88v87h88zM182 852v-87h-88v87h88z" />
    <glyph glyph-name="Atilde" unicode="&#xc3;" horiz-adv-x="461" 
d="M282 682l182 -682h-79l-30 110h-250l-29 -110h-79l181 682h104zM127 188h206l-95 410h-16zM296 822c34 0 47 37 51 52h35c-6 -44 -41 -121 -86 -121c-19 0 -45 16 -68 28c-22 11 -43 24 -62 24c-32 0 -46 -36 -51 -52h-34c6 42 41 121 85 121c20 0 46 -16 69 -28
c21 -11 44 -24 61 -24z" />
    <glyph glyph-name="Aring" unicode="&#xc5;" horiz-adv-x="461" 
d="M282 682l182 -682h-79l-30 110h-250l-29 -110h-79l181 682h104zM127 188h206l-95 410h-16zM138 813c0 51 42 93 92 93c51 0 93 -42 93 -93c0 -50 -42 -92 -93 -92c-50 0 -92 42 -92 92zM181 813c0 -28 21 -49 49 -49s49 21 49 49s-21 49 -49 49s-49 -21 -49 -49z" />
    <glyph glyph-name="Eacute" unicode="&#xc9;" 
d="M77 682h354v-78h-275v-197h219v-78h-219v-251h275v-78h-354v682zM372 884h-82l-71 -141h60z" />
    <glyph glyph-name="Egrave" unicode="&#xc8;" 
d="M77 682h354v-78h-275v-197h219v-78h-219v-251h275v-78h-354v682zM128 884h82l71 -141h-59z" />
    <glyph glyph-name="Ecircumflex" unicode="&#xca;" 
d="M77 682h354v-78h-275v-197h219v-78h-219v-251h275v-78h-354v682zM320 744h71l-113 141h-55l-113 -141h71l69 88z" />
    <glyph glyph-name="Edieresis" unicode="&#xcb;" 
d="M77 682h354v-78h-275v-197h219v-78h-219v-251h275v-78h-354v682zM386 852v-87h-88v87h88zM202 852v-87h-88v87h88z" />
    <glyph glyph-name="Iacute" unicode="&#xcd;" horiz-adv-x="233" 
d="M77 0h79v682h-79v-682zM239 884h-82l-71 -141h60z" />
    <glyph glyph-name="Igrave" unicode="&#xcc;" horiz-adv-x="233" 
d="M77 0h79v682h-79v-682zM-5 884h82l71 -141h-59z" />
    <glyph glyph-name="Icircumflex" unicode="&#xce;" horiz-adv-x="233" 
d="M77 0h79v682h-79v-682zM187 744h71l-113 141h-55l-113 -141h71l69 88z" />
    <glyph glyph-name="Idieresis" unicode="&#xcf;" horiz-adv-x="233" 
d="M77 0h79v682h-79v-682zM253 852v-87h-88v87h88zM69 852v-87h-88v87h88z" />
    <glyph glyph-name="Ntilde" unicode="&#xd1;" horiz-adv-x="562" 
d="M406 682h79v-682h-84l-245 521v-521h-79v682h84l245 -514v514zM348 822c34 0 47 37 51 52h35c-6 -44 -41 -121 -86 -121c-19 0 -45 16 -68 28c-22 11 -43 24 -62 24c-32 0 -46 -36 -51 -52h-34c6 42 41 121 85 121c20 0 46 -16 69 -28c21 -11 44 -24 61 -24z" />
    <glyph glyph-name="Oacute" unicode="&#xd3;" horiz-adv-x="522" 
d="M261 682c204 0 204 -203 204 -203v-275s0 -204 -204 -204s-204 204 -204 204v275s0 203 204 203zM386 204v275s0 125 -125 125s-125 -125 -125 -125v-275s0 -126 125 -126s125 126 125 126zM383 884h-82l-71 -141h60z" />
    <glyph glyph-name="Ograve" unicode="&#xd2;" horiz-adv-x="522" 
d="M261 682c204 0 204 -203 204 -203v-275s0 -204 -204 -204s-204 204 -204 204v275s0 203 204 203zM386 204v275s0 125 -125 125s-125 -125 -125 -125v-275s0 -126 125 -126s125 126 125 126zM139 884h82l71 -141h-59z" />
    <glyph glyph-name="Ocircumflex" unicode="&#xd4;" horiz-adv-x="522" 
d="M261 682c204 0 204 -203 204 -203v-275s0 -204 -204 -204s-204 204 -204 204v275s0 203 204 203zM386 204v275s0 125 -125 125s-125 -125 -125 -125v-275s0 -126 125 -126s125 126 125 126zM331 744h71l-113 141h-55l-113 -141h71l69 88z" />
    <glyph glyph-name="Odieresis" unicode="&#xd6;" horiz-adv-x="522" 
d="M261 682c204 0 204 -203 204 -203v-275s0 -204 -204 -204s-204 204 -204 204v275s0 203 204 203zM386 204v275s0 125 -125 125s-125 -125 -125 -125v-275s0 -126 125 -126s125 126 125 126zM397 852v-87h-88v87h88zM213 852v-87h-88v87h88z" />
    <glyph glyph-name="Otilde" unicode="&#xd5;" horiz-adv-x="522" 
d="M261 682c204 0 204 -203 204 -203v-275s0 -204 -204 -204s-204 204 -204 204v275s0 203 204 203zM386 204v275s0 125 -125 125s-125 -125 -125 -125v-275s0 -126 125 -126s125 126 125 126zM327 822c34 0 47 37 51 52h35c-6 -44 -41 -121 -86 -121c-19 0 -45 16 -68 28
c-22 11 -43 24 -62 24c-32 0 -46 -36 -51 -52h-34c6 42 41 121 85 121c20 0 46 -16 69 -28c21 -11 44 -24 61 -24z" />
    <glyph glyph-name="Uacute" unicode="&#xda;" horiz-adv-x="542" 
d="M396 681h79v-477s0 -204 -204 -204s-204 204 -204 204v477h79v-477s0 -126 125 -126s125 126 125 126v477zM393 884h-82l-71 -141h60z" />
    <glyph glyph-name="Ugrave" unicode="&#xd9;" horiz-adv-x="542" 
d="M396 681h79v-477s0 -204 -204 -204s-204 204 -204 204v477h79v-477s0 -126 125 -126s125 126 125 126v477zM149 884h82l71 -141h-59z" />
    <glyph glyph-name="Ucircumflex" unicode="&#xdb;" horiz-adv-x="542" 
d="M396 681h79v-477s0 -204 -204 -204s-204 204 -204 204v477h79v-477s0 -126 125 -126s125 126 125 126v477zM341 744h71l-113 141h-55l-113 -141h71l69 88z" />
    <glyph glyph-name="Udieresis" unicode="&#xdc;" horiz-adv-x="542" 
d="M396 681h79v-477s0 -204 -204 -204s-204 204 -204 204v477h79v-477s0 -126 125 -126s125 126 125 126v477zM407 852v-87h-88v87h88zM223 852v-87h-88v87h88z" />
    <glyph glyph-name="Yacute" unicode="&#xdd;" horiz-adv-x="428" 
d="M441 682l-187 -388v-294h-79v294l-188 388h88l139 -308l140 308h87zM336 884h-82l-71 -141h60z" />
    <glyph glyph-name="Ydieresis" unicode="&#x178;" horiz-adv-x="428" 
d="M441 682l-187 -388v-294h-79v294l-188 388h88l139 -308l140 308h87zM350 852v-87h-88v87h88zM166 852v-87h-88v87h88z" />
    <glyph glyph-name="Ccedilla" unicode="&#xc7;" horiz-adv-x="507" 
d="M295 -57v59c169 19 169 186 169 186h-79s0 -110 -124 -110c-125 0 -125 126 -125 126v275s0 125 125 125c124 0 124 -110 124 -110h79c2 0 0 188 -203 188c-204 0 -204 -203 -204 -203v-275s0 -183 173 -202v-67h1c28 0 53 -25 53 -53c0 -29 -25 -54 -53 -54h-33v-44h33
c89 0 129 37 129 81c0 59 -49 78 -65 78z" />
    <glyph glyph-name="Scaron" unicode="&#x160;" horiz-adv-x="482" 
d="M126 511c0 -113 319 -185 319 -340c0 -110 -91 -171 -204 -171h-149v77h149s115 1 114 94c-1 113 -318 182 -318 340c0 111 91 171 204 171h148v-78h-148s-115 0 -115 -93zM382 884l-113 -141h-55l-113 141h71l69 -87c21 25 47 60 69 87h72z" />
    <glyph glyph-name="Zcaron" unicode="&#x17d;" horiz-adv-x="482" 
d="M445 681v-78l-320 -525h320v-78h-408v77l320 526h-320v78h408zM387 885l-113 -141h-55l-113 141h71l69 -87c21 25 47 60 69 87h72z" />
    <glyph glyph-name="aacute" unicode="&#xe1;" 
d="M251 517c0 0 150 0 150 -148v-369h-33l-77 78c0 -78 -40 -78 -40 -78h-54s-150 0 -150 149s150 149 150 149h125v71c0 70 -71 70 -71 70h-170v78h170zM322 149v70h-125s-71 0 -71 -70c0 -71 71 -71 71 -71h54s71 0 71 71zM349 736h-82l-71 -141h60z" />
    <glyph glyph-name="agrave" unicode="&#xe0;" 
d="M251 517c0 0 150 0 150 -148v-369h-33l-77 78c0 -78 -40 -78 -40 -78h-54s-150 0 -150 149s150 149 150 149h125v71c0 70 -71 70 -71 70h-170v78h170zM322 149v70h-125s-71 0 -71 -70c0 -71 71 -71 71 -71h54s71 0 71 71zM105 736h82l71 -141h-59z" />
    <glyph glyph-name="acircumflex" unicode="&#xe2;" 
d="M251 517c0 0 150 0 150 -148v-369h-33l-77 78c0 -78 -40 -78 -40 -78h-54s-150 0 -150 149s150 149 150 149h125v71c0 70 -71 70 -71 70h-170v78h170zM322 149v70h-125s-71 0 -71 -70c0 -71 71 -71 71 -71h54s71 0 71 71zM297 596h71l-113 141h-55l-113 -141h71l69 88z
" />
    <glyph glyph-name="adieresis" unicode="&#xe4;" 
d="M251 517c0 0 150 0 150 -148v-369h-33l-77 78c0 -78 -40 -78 -40 -78h-54s-150 0 -150 149s150 149 150 149h125v71c0 70 -71 70 -71 70h-170v78h170zM322 149v70h-125s-71 0 -71 -70c0 -71 71 -71 71 -71h54s71 0 71 71zM363 704v-87h-88v87h88zM179 704v-87h-88v87h88z
" />
    <glyph glyph-name="atilde" unicode="&#xe3;" 
d="M251 517c0 0 150 0 150 -148v-369h-33l-77 78c0 -78 -40 -78 -40 -78h-54s-150 0 -150 149s150 149 150 149h125v71c0 70 -71 70 -71 70h-170v78h170zM322 149v70h-125s-71 0 -71 -70c0 -71 71 -71 71 -71h54s71 0 71 71zM293 674c34 0 47 37 51 52h35
c-6 -44 -41 -121 -86 -121c-19 0 -45 16 -68 28c-22 11 -43 24 -62 24c-32 0 -46 -36 -51 -52h-34c6 42 41 121 85 121c20 0 46 -16 69 -28c21 -11 44 -24 61 -24z" />
    <glyph glyph-name="aring" unicode="&#xe5;" 
d="M251 517c0 0 150 0 150 -148v-369h-33l-77 78c0 -78 -40 -78 -40 -78h-54s-150 0 -150 149s150 149 150 149h125v71c0 70 -71 70 -71 70h-170v78h170zM322 149v70h-125s-71 0 -71 -70c0 -71 71 -71 71 -71h54s71 0 71 71zM135 665c0 51 42 93 92 93c51 0 93 -42 93 -93
c0 -50 -42 -92 -93 -92c-50 0 -92 42 -92 92zM178 665c0 -28 21 -49 49 -49s49 21 49 49s-21 49 -49 49s-49 -21 -49 -49z" />
    <glyph glyph-name="eacute" unicode="&#xe9;" horiz-adv-x="468" 
d="M421 369c0 0 0 -150 -150 -150h-125v-70s0 -71 71 -71h204v-78h-204s-150 0 -150 149v220s0 148 150 148h54s150 0 150 -148zM146 298h125s71 0 71 71c0 70 -71 70 -71 70h-54s-71 0 -71 -70v-71zM368 736h-82l-71 -141h60z" />
    <glyph glyph-name="egrave" unicode="&#xe8;" horiz-adv-x="468" 
d="M421 369c0 0 0 -150 -150 -150h-125v-70s0 -71 71 -71h204v-78h-204s-150 0 -150 149v220s0 148 150 148h54s150 0 150 -148zM146 298h125s71 0 71 71c0 70 -71 70 -71 70h-54s-71 0 -71 -70v-71zM124 736h82l71 -141h-59z" />
    <glyph glyph-name="ecircumflex" unicode="&#xea;" horiz-adv-x="468" 
d="M421 369c0 0 0 -150 -150 -150h-125v-70s0 -71 71 -71h204v-78h-204s-150 0 -150 149v220s0 148 150 148h54s150 0 150 -148zM146 298h125s71 0 71 71c0 70 -71 70 -71 70h-54s-71 0 -71 -70v-71zM316 596h71l-113 141h-55l-113 -141h71l69 88z" />
    <glyph glyph-name="edieresis" unicode="&#xeb;" horiz-adv-x="468" 
d="M421 369c0 0 0 -150 -150 -150h-125v-70s0 -71 71 -71h204v-78h-204s-150 0 -150 149v220s0 148 150 148h54s150 0 150 -148zM146 298h125s71 0 71 71c0 70 -71 70 -71 70h-54s-71 0 -71 -70v-71zM382 704v-87h-88v87h88zM198 704v-87h-88v87h88z" />
    <glyph glyph-name="iacute" unicode="&#xed;" horiz-adv-x="272" 
d="M176 78h54v-78h-188v78h55v439h79v-439zM260 736h-82l-71 -141h60z" />
    <glyph glyph-name="igrave" unicode="&#xec;" horiz-adv-x="272" 
d="M176 78h54v-78h-188v78h55v439h79v-439zM16 736h82l71 -141h-59z" />
    <glyph glyph-name="icircumflex" unicode="&#xee;" horiz-adv-x="272" 
d="M176 78h54v-78h-188v78h55v439h79v-439zM208 596h71l-113 141h-55l-113 -141h71l69 88z" />
    <glyph glyph-name="idieresis" unicode="&#xef;" horiz-adv-x="272" 
d="M176 78h54v-78h-188v78h55v439h79v-439zM274 704v-87h-88v87h88zM90 704v-87h-88v87h88z" />
    <glyph glyph-name="ntilde" unicode="&#xf1;" horiz-adv-x="503" 
d="M431 0v371c0 148 -150 146 -150 146h-54s-40 0 -40 -78l-77 78h-33v-517h79v368s0 71 71 71h54s71 0 71 -71v-368h79zM322 674c34 0 47 37 51 52h35c-6 -44 -41 -121 -86 -121c-19 0 -45 16 -68 28c-22 11 -43 24 -62 24c-32 0 -46 -36 -51 -52h-34c6 42 41 121 85 121
c20 0 46 -16 69 -28c21 -11 44 -24 61 -24z" />
    <glyph glyph-name="oacute" unicode="&#xf3;" horiz-adv-x="487" 
d="M271 517c0 0 149 0 149 -148v-220s0 -149 -149 -149h-55s-149 0 -149 149v220s0 148 149 148h55zM341 149v220s0 70 -70 70h-55s-70 0 -70 -70v-220s0 -71 70 -71h55s70 0 70 71zM367 736h-82l-71 -141h60z" />
    <glyph glyph-name="ograve" unicode="&#xf2;" horiz-adv-x="487" 
d="M271 517c0 0 149 0 149 -148v-220s0 -149 -149 -149h-55s-149 0 -149 149v220s0 148 149 148h55zM341 149v220s0 70 -70 70h-55s-70 0 -70 -70v-220s0 -71 70 -71h55s70 0 70 71zM123 736h82l71 -141h-59z" />
    <glyph glyph-name="ocircumflex" unicode="&#xf4;" horiz-adv-x="487" 
d="M271 517c0 0 149 0 149 -148v-220s0 -149 -149 -149h-55s-149 0 -149 149v220s0 148 149 148h55zM341 149v220s0 70 -70 70h-55s-70 0 -70 -70v-220s0 -71 70 -71h55s70 0 70 71zM315 596h71l-113 141h-55l-113 -141h71l69 88z" />
    <glyph glyph-name="odieresis" unicode="&#xf6;" horiz-adv-x="487" 
d="M271 517c0 0 149 0 149 -148v-220s0 -149 -149 -149h-55s-149 0 -149 149v220s0 148 149 148h55zM341 149v220s0 70 -70 70h-55s-70 0 -70 -70v-220s0 -71 70 -71h55s70 0 70 71zM381 704v-87h-88v87h88zM197 704v-87h-88v87h88z" />
    <glyph glyph-name="otilde" unicode="&#xf5;" horiz-adv-x="487" 
d="M271 517c0 0 149 0 149 -148v-220s0 -149 -149 -149h-55s-149 0 -149 149v220s0 148 149 148h55zM341 149v220s0 70 -70 70h-55s-70 0 -70 -70v-220s0 -71 70 -71h55s70 0 70 71zM311 674c34 0 47 37 51 52h35c-6 -44 -41 -121 -86 -121c-19 0 -45 16 -68 28
c-22 11 -43 24 -62 24c-32 0 -46 -36 -51 -52h-34c6 42 41 121 85 121c20 0 46 -16 69 -28c21 -11 44 -24 61 -24z" />
    <glyph glyph-name="uacute" unicode="&#xfa;" horiz-adv-x="502" 
d="M72 517v-368c0 -149 149 -149 149 -149h55s39 0 39 78l78 -78h32v517h-79v-368s0 -71 -70 -71h-55s-70 0 -70 71v368h-79zM373 736h-82l-71 -141h60z" />
    <glyph glyph-name="ugrave" unicode="&#xf9;" horiz-adv-x="502" 
d="M72 517v-368c0 -149 149 -149 149 -149h55s39 0 39 78l78 -78h32v517h-79v-368s0 -71 -70 -71h-55s-70 0 -70 71v368h-79zM129 736h82l71 -141h-59z" />
    <glyph glyph-name="ucircumflex" unicode="&#xfb;" horiz-adv-x="502" 
d="M72 517v-368c0 -149 149 -149 149 -149h55s39 0 39 78l78 -78h32v517h-79v-368s0 -71 -70 -71h-55s-70 0 -70 71v368h-79zM321 596h71l-113 141h-55l-113 -141h71l69 88z" />
    <glyph glyph-name="udieresis" unicode="&#xfc;" horiz-adv-x="502" 
d="M72 517v-368c0 -149 149 -149 149 -149h55s39 0 39 78l78 -78h32v517h-79v-368s0 -71 -70 -71h-55s-70 0 -70 71v368h-79zM387 704v-87h-88v87h88zM203 704v-87h-88v87h88z" />
    <glyph glyph-name="yacute" unicode="&#xfd;" horiz-adv-x="418" 
d="M411 517l-160 -532v-56c0 -148 -150 -148 -150 -148h-94v78h94c71 0 71 70 71 70v56l-159 532h82l117 -426l116 426h83zM334 736h-82l-71 -141h60z" />
    <glyph glyph-name="ydieresis" unicode="&#xff;" horiz-adv-x="418" 
d="M411 517l-160 -532v-56c0 -148 -150 -148 -150 -148h-94v78h94c71 0 71 70 71 70v56l-159 532h82l117 -426l116 426h83zM348 704v-87h-88v87h88zM164 704v-87h-88v87h88z" />
    <glyph glyph-name="ccedilla" unicode="&#xe7;" horiz-adv-x="464" 
d="M278 -57v57c142 4 142 134 142 134h-79c0 -56 -70 -56 -70 -56h-54c-71 0 -71 71 -71 71v220c0 70 71 70 71 70h54c68 0 69 -55 69 -55h81c1 133 -150 133 -150 133h-54c-150 0 -150 -148 -150 -148v-220c0 -134 121 -148 146 -149v-65h1c28 0 53 -25 53 -53
c0 -29 -25 -54 -53 -54h-33v-44h33c89 0 129 37 129 81c0 59 -49 78 -65 78z" />
    <glyph glyph-name="scaron" unicode="&#x161;" horiz-adv-x="438" 
d="M76 78v-78h170s150 0 150 138c0 110 -98 138 -173 160c-56 16 -102 31 -102 71c0 70 71 70 71 70h170v78h-170s-150 0 -150 -138c0 -112 99 -139 174 -160c56 -16 101 -29 101 -70c0 -71 -71 -71 -71 -71h-170zM360 736l-113 -141h-55l-113 141h71l69 -87
c21 25 47 60 69 87h72z" />
    <glyph glyph-name="zcaron" unicode="&#x17e;" horiz-adv-x="391" 
d="M344 517v-57l-198 -382h198v-78h-297v59l205 380h-205v78h297zM338 736l-113 -141h-55l-113 141h71l69 -87c21 25 47 60 69 87h72z" />
    <glyph glyph-name="zero" unicode="0" horiz-adv-x="487" 
d="M271 682c149 0 149 -149 149 -149v-384c0 -149 -149 -149 -149 -149h-55c-149 0 -149 149 -149 149v384c0 149 149 149 149 149h55zM341 149v384c0 71 -70 71 -70 71h-55c-70 0 -70 -71 -70 -71v-384c0 -71 70 -71 70 -71h55c70 0 70 71 70 71z" />
    <glyph glyph-name="currency" unicode="&#xa4;" horiz-adv-x="702" 
d="M593 341c0 -55 -20 -108 -55 -155l147 -147l-31 -32l-148 148c-47 -36 -100 -57 -154 -57c-55 0 -109 21 -156 57l-147 -148l-32 32l148 147c-35 47 -56 100 -56 155c0 54 21 108 56 155l-148 147l32 31l147 -146c47 34 101 55 156 55c54 0 107 -21 154 -55l148 146
l31 -31l-147 -147c35 -47 55 -101 55 -155zM352 177c90 0 163 74 163 164c0 89 -73 164 -163 164c-91 0 -164 -75 -164 -164c0 -90 73 -164 164 -164z" />
    <glyph glyph-name="one" unicode="1" horiz-adv-x="351" 
d="M37 682h188v-604h109v-78h-297v78h109v526h-109v78z" />
    <glyph glyph-name="fi" unicode="&#xfb01;" horiz-adv-x="544" 
d="M201 658c-70 0 -70 -70 -70 -70s1 -71 50 -71h94v-78h-109v-439h-79v439h-55v78h77c-31 29 -56 62 -56 93c0 127 148 127 148 127h257v-79h-257zM458 78h54v-78h-188v78h55v439h79v-439z" />
    <glyph glyph-name="fl" unicode="&#xfb02;" horiz-adv-x="544" 
d="M201 658c-70 0 -70 -70 -70 -70s1 -71 50 -71h94v-78h-109v-439h-79v439h-55v78h77c-31 29 -56 62 -56 93c0 127 148 127 148 127h257v-659h54v-78h-188v78h55v580h-178z" />
    <glyph glyph-name="two" unicode="2" horiz-adv-x="431" 
d="M389 533c0 -202 -241 -455 -241 -455h241v-78h-331v78s252 278 252 455c0 56 -38 70 -69 71h-56c-48 0 -65 -27 -69 -57c-30 0 -51 1 -79 1c0 58 47 134 148 134h55c60 0 149 -39 149 -149z" />
    <glyph glyph-name="three" unicode="3" horiz-adv-x="457" 
d="M390 479v54c0 149 -150 149 -150 149h-54c-149 0 -149 -133 -149 -133h79c0 56 70 55 70 55h54c71 0 71 -71 71 -71v-56c0 -26 -8 -97 -98 -97h-11v-78h16c32 -1 93 -3 93 -98v-55s0 -71 -71 -71h-54s-70 0 -70 56h-79c0 -39 20 -134 149 -134h54s150 0 150 149v55
c0 73 -28 100 -65 136c45 49 65 83 65 139z" />
    <glyph glyph-name="four" unicode="4" horiz-adv-x="419" 
d="M165 682h88l-154 -439h160v110h79v-110h54v-78h-54v-165h-79v165h-232v93z" />
    </font>
</defs>
</svg>
